<?xml version="1.0" standalone="no"?><!DOCTYPE svg PUBLIC "-//W3C//DTD SVG 1.1//EN" "http://www.w3.org/Graphics/SVG/1.1/DTD/svg11.dtd"><svg t="1591018287782" class="icon" viewBox="0 0 1024 1024" version="1.1" xmlns="http://www.w3.org/2000/svg" p-id="4510" xmlns:xlink="http://www.w3.org/1999/xlink" width="128" height="128"><defs><style type="text/css"></style></defs><path d="M448 896c0 35.2-28.8 64-64 64L192 960c-35.2 0-64-28.8-64-64L128 128c0-35.2 28.8-64 64-64l192 0c35.2 0 64 28.8 64 64L448 896z" p-id="4511" fill="#e6e6e6"></path><path d="M896 896c0 35.2-28.8 64-64 64l-192 0c-35.2 0-64-28.8-64-64L576 128c0-35.2 28.8-64 64-64l192 0c35.2 0 64 28.8 64 64L896 896z" p-id="4512" fill="#e6e6e6"></path></svg>